<svg xmlns="http://www.w3.org/2000/svg" width="700" height="260" viewBox="0 0 700 260">
  <defs>
    <style>.mono { font-family: 'Courier New', Courier, monospace; }</style>
  </defs>

  <!-- Background -->
  <rect width="700" height="260" rx="8" fill="#0d1117"/>

  <!-- Title -->
  <text x="350" y="22" text-anchor="middle" class="mono" font-size="11" fill="#8b949e" letter-spacing="1">TRAINING STATUS — KNOWLEDGE DISTILLATION V2</text>

  <!-- Progress bar -->
  <text x="24" y="44" class="mono" font-size="11" fill="#8b949e">Overall Progress</text>
  <text x="676" y="44" text-anchor="end" class="mono" font-size="11" font-weight="700" fill="#3fb950">100% ✓</text>
  <rect x="24" y="50" width="652" height="12" rx="6" fill="#21262d"/>
  <rect x="24" y="50" width="652" height="12" rx="6" fill="#238636" opacity="0.85"/>

  <!-- Step rows -->
  <!-- Row 1: CoT Traces -->
  <rect x="24" y="72" width="652" height="28" rx="5" fill="#0a1f0a" stroke="#238636" stroke-width="1"/>
  <text x="44" y="91" class="mono" font-size="13" fill="#3fb950">✓</text>
  <text x="64" y="91" class="mono" font-size="12" font-weight="600" fill="#f0f6fc">CoT Trace Generation</text>
  <text x="310" y="91" class="mono" font-size="11" fill="#8b949e">200 traces · qwen/qwen3.6-plus · 96.5% valid</text>
  <rect x="524" y="76" width="136" height="20" rx="5" fill="#238636" opacity="0.3"/>
  <text x="592" y="90" text-anchor="middle" class="mono" font-size="11" font-weight="600" fill="#3fb950">COMPLETE</text>

  <!-- Row 2: Training -->
  <rect x="24" y="106" width="652" height="28" rx="5" fill="#0a1f0a" stroke="#238636" stroke-width="1"/>
  <text x="44" y="125" class="mono" font-size="13" fill="#3fb950">✓</text>
  <text x="64" y="125" class="mono" font-size="12" font-weight="600" fill="#f0f6fc">Student Training (Full Fine-tune)</text>
  <text x="360" y="125" class="mono" font-size="11" fill="#8b949e">5 epochs · 125 steps · loss 23.0</text>
  <rect x="524" y="110" width="136" height="20" rx="5" fill="#238636" opacity="0.3"/>
  <text x="592" y="124" text-anchor="middle" class="mono" font-size="11" font-weight="600" fill="#3fb950">COMPLETE</text>

  <!-- Row 3: Evaluation -->
  <rect x="24" y="140" width="652" height="28" rx="5" fill="#0a1f0a" stroke="#238636" stroke-width="1"/>
  <text x="44" y="159" class="mono" font-size="13" fill="#3fb950">✓</text>
  <text x="64" y="159" class="mono" font-size="12" font-weight="600" fill="#f0f6fc">GSM8K Evaluation</text>
  <text x="280" y="159" class="mono" font-size="11" fill="#8b949e">20 samples · accuracy 10% · BLEU 0.329 · real reasoning</text>
  <rect x="524" y="144" width="136" height="20" rx="5" fill="#238636" opacity="0.3"/>
  <text x="592" y="158" text-anchor="middle" class="mono" font-size="11" font-weight="600" fill="#3fb950">COMPLETE</text>

  <!-- Row 4: HF Upload -->
  <rect x="24" y="174" width="652" height="28" rx="5" fill="#0a1f0a" stroke="#238636" stroke-width="1"/>
  <text x="44" y="193" class="mono" font-size="13" fill="#3fb950">✓</text>
  <text x="64" y="193" class="mono" font-size="12" font-weight="600" fill="#f0f6fc">HuggingFace Upload</text>
  <text x="300" y="193" class="mono" font-size="11" fill="#8b949e">daksh-neo/gemma4-distillation-e4b-to-e2b</text>
  <rect x="524" y="178" width="136" height="20" rx="5" fill="#238636" opacity="0.3"/>
  <text x="592" y="192" text-anchor="middle" class="mono" font-size="11" font-weight="600" fill="#3fb950">COMPLETE</text>

  <!-- v1 vs v2 comparison bar -->
  <rect x="24" y="212" width="652" height="40" rx="6" fill="#161b22" stroke="#58a6ff" stroke-width="1"/>
  <text x="34" y="228" class="mono" font-size="10" fill="#8b949e">v1 (gemma-4-E4B-it teacher)</text>
  <text x="34" y="243" class="mono" font-size="10" fill="#8b949e">v2 (qwen3.6-plus teacher)  </text>
  <text x="260" y="228" class="mono" font-size="10" fill="#da3633">accuracy 0%   BLEU 0.202   degenerate traces</text>
  <text x="260" y="243" class="mono" font-size="11" font-weight="700" fill="#3fb950">accuracy 10%  BLEU 0.329   real step-by-step reasoning</text>
</svg>
