<svg xmlns="http://www.w3.org/2000/svg" width="700" height="200" viewBox="0 0 700 200">
  <defs>
    <style>
      .font-base { font-family: 'Segoe UI', system-ui, sans-serif; }
    </style>
  </defs>

  <!-- Background -->
  <rect width="700" height="200" fill="#0d1117" rx="8"/>

  <!-- Title -->
  <text x="350" y="26" text-anchor="middle" class="font-base" font-size="11" fill="#8b949e" letter-spacing="0.08em">TRAINING STATUS — KNOWLEDGE DISTILLATION</text>

  <!-- Progress bar section -->
  <text x="24" y="50" class="font-base" font-size="12" fill="#8b949e">Overall Progress</text>
  <text x="676" y="50" text-anchor="end" class="font-base" font-size="12" font-weight="700" fill="#3fb950">100% ✓</text>
  <!-- Bar track -->
  <rect x="24" y="56" width="652" height="14" rx="7" fill="#21262d"/>
  <!-- Filled bar -->
  <rect x="24" y="56" width="652" height="14" rx="7" fill="#238636" opacity="0.9"/>

  <!-- Row 1: CoT Trace Generation — DONE -->
  <rect x="24" y="78" width="652" height="25" rx="5" fill="#0a1f0a" stroke="#238636" stroke-width="1"/>
  <text x="42" y="95" class="font-base" font-size="12" fill="#3fb950">✓</text>
  <text x="64" y="95" class="font-base" font-size="12" font-weight="600" fill="#f0f6fc">CoT Trace Generation</text>
  <text x="300" y="95" class="font-base" font-size="11" fill="#8b949e">1,000 traces from gemma-4-E4B-it on GSM8K</text>
  <rect x="524" y="82" width="136" height="18" rx="5" fill="#238636" opacity="0.3"/>
  <text x="592" y="95" text-anchor="middle" class="font-base" font-size="11" font-weight="600" fill="#3fb950">COMPLETE</text>

  <!-- Row 2: Student Training — DONE (partial) -->
  <rect x="24" y="108" width="652" height="25" rx="5" fill="#0a1f0a" stroke="#f0883e" stroke-width="1"/>
  <text x="42" y="125" class="font-base" font-size="12" fill="#f0883e">⚠</text>
  <text x="64" y="125" class="font-base" font-size="12" font-weight="600" fill="#f0f6fc">Student Training (Full Fine-tune)</text>
  <text x="370" y="125" class="font-base" font-size="11" fill="#8b949e">12/30 epochs · step 1500</text>
  <rect x="524" y="112" width="136" height="18" rx="5" fill="#f0883e" opacity="0.2"/>
  <text x="592" y="125" text-anchor="middle" class="font-base" font-size="11" font-weight="600" fill="#f0883e">INTERRUPTED</text>

  <!-- Row 3: GSM8K Evaluation — DONE -->
  <rect x="24" y="138" width="652" height="25" rx="5" fill="#0a1f0a" stroke="#238636" stroke-width="1"/>
  <text x="42" y="155" class="font-base" font-size="12" fill="#3fb950">✓</text>
  <text x="64" y="155" class="font-base" font-size="12" font-weight="600" fill="#f0f6fc">GSM8K Evaluation</text>
  <text x="260" y="155" class="font-base" font-size="11" fill="#8b949e">20 samples · accuracy 0% · BLEU 0.202 · degenerate traces</text>
  <rect x="524" y="142" width="136" height="18" rx="5" fill="#238636" opacity="0.3"/>
  <text x="592" y="155" text-anchor="middle" class="font-base" font-size="11" font-weight="600" fill="#3fb950">COMPLETE</text>

  <!-- Row 4: Report Generation — DONE -->
  <rect x="24" y="168" width="652" height="25" rx="5" fill="#0a1f0a" stroke="#238636" stroke-width="1"/>
  <text x="42" y="185" class="font-base" font-size="12" fill="#3fb950">✓</text>
  <text x="64" y="185" class="font-base" font-size="12" font-weight="600" fill="#f0f6fc">Report &amp; HF Upload</text>
  <text x="280" y="185" class="font-base" font-size="11" fill="#8b949e">daksh-neo/gemma4-distillation-e4b-to-e2b</text>
  <rect x="524" y="172" width="136" height="18" rx="5" fill="#238636" opacity="0.3"/>
  <text x="592" y="185" text-anchor="middle" class="font-base" font-size="11" font-weight="600" fill="#3fb950">COMPLETE</text>
</svg>
